<?xml version="1.0" encoding="utf-8"?>
<!-- Generator: Adobe Illustrator 23.0.0, SVG Export Plug-In . SVG Version: 6.00 Build 0)  -->
<svg version="1.1" id="图层_1" xmlns="http://www.w3.org/2000/svg" xmlns:xlink="http://www.w3.org/1999/xlink" x="0px" y="0px"
	 width="256px" height="256px" viewBox="0 0 256 256" style="enable-background:new 0 0 256 256;" xml:space="preserve">
<style type="text/css">
	.st0{fill:url(#SVGID_1_);}
	.st1{fill:#FFFFFF;}
	.st2{clip-path:url(#SVGID_3_);}
	.st3{fill:url(#SVGID_4_);}
	.st4{fill:url(#SVGID_5_);}
	.st5{fill:url(#SVGID_6_);}
	.st6{fill:url(#SVGID_7_);}
</style>
<linearGradient id="SVGID_1_" gradientUnits="userSpaceOnUse" x1="128" y1="252.5" x2="128" y2="3.5">
	<stop  offset="0" style="stop-color:#E95513"/>
	<stop  offset="1" style="stop-color:#F7B52C"/>
</linearGradient>
<circle class="st0" cx="128" cy="128" r="124.5"/>
<g>
	<g>
		<g>
			<circle class="st1" cx="211.3" cy="81.6" r="12.9"/>
			<path class="st1" d="M219.5,101.5l-7.3,11.9l-27.9-36.2c-3.5-4.1-4.8-4.7-9.6-3.5l-23.5,6.8c-3.8,1.3-4.5,7.2-2.9,9.8
				c1.2,2,2.9,4.9,10.1,3.1l17.1-5.2l7.3,10.1l-83.1,64.8c-3.6,2.9-3.8,7.4-1.5,10.3c2.3,2.9,6.7,3.3,10,1.1l48.6-38.4l18.1,14.3
				l-21.6,5.1c-3.1,1.6-4.4,4.6-4,7.6c0.5,3.8,4.4,6.9,8.6,6.2l34.7-8.3c3-0.5,7-3.9,5.3-9.3c0,0-0.5-1.7-2.6-3.2l-20.7-16.5
				l22.2-16.2l10.6,14.2c-0.4-0.6,2.1,3,5,3.1c3.8,0.5,6.1-3,6.1-3l12.8-21.2c2.5-5.8-1-8.7-1.9-9.2
				C226.4,97.5,223.3,97.6,219.5,101.5z"/>
		</g>
	</g>
</g>
<g>
	<defs>
		<circle id="SVGID_2_" cx="128" cy="128" r="124.5"/>
	</defs>
	<clipPath id="SVGID_3_">
		<use xlink:href="#SVGID_2_"  style="overflow:visible;"/>
	</clipPath>
	<g class="st2">
		<linearGradient id="SVGID_4_" gradientUnits="userSpaceOnUse" x1="23.9946" y1="53.2695" x2="143.7432" y2="53.2695">
			<stop  offset="0" style="stop-color:#FFFFFF;stop-opacity:0"/>
			<stop  offset="0.9624" style="stop-color:#FFFFFF"/>
			<stop  offset="1" style="stop-color:#FFFFFF"/>
		</linearGradient>
		<polygon class="st3" points="136.4,57.3 24,57.3 24,49.3 143.7,49.3 		"/>
		<g>
			<linearGradient id="SVGID_5_" gradientUnits="userSpaceOnUse" x1="-14.6226" y1="82.8949" x2="104.914" y2="82.8949">
				<stop  offset="0" style="stop-color:#FFFFFF;stop-opacity:0"/>
				<stop  offset="0.9624" style="stop-color:#FFFFFF"/>
				<stop  offset="1" style="stop-color:#FFFFFF"/>
			</linearGradient>
			<polygon class="st4" points="97.5,86.9 -14.6,86.9 -14.6,78.9 104.9,78.9 			"/>
			<linearGradient id="SVGID_6_" gradientUnits="userSpaceOnUse" x1="-7.2992" y1="120.8437" x2="111.8922" y2="120.8437">
				<stop  offset="0" style="stop-color:#FFFFFF;stop-opacity:0"/>
				<stop  offset="0.9624" style="stop-color:#FFFFFF"/>
				<stop  offset="1" style="stop-color:#FFFFFF"/>
			</linearGradient>
			<polygon class="st5" points="104.5,124.8 -7.3,124.8 -7.3,116.8 111.9,116.8 			"/>
			<linearGradient id="SVGID_7_" gradientUnits="userSpaceOnUse" x1="-42.5849" y1="150.1375" x2="76.6137" y2="150.1375">
				<stop  offset="0" style="stop-color:#FFFFFF;stop-opacity:0"/>
				<stop  offset="0.9624" style="stop-color:#FFFFFF"/>
				<stop  offset="1" style="stop-color:#FFFFFF"/>
			</linearGradient>
			<polygon class="st6" points="69.2,154.1 -42.6,154.1 -42.6,146.1 76.6,146.1 			"/>
		</g>
		<path class="st1" d="M222.9,217.7c-3.7,0-7.2,0.6-10.4,1.8c-5.9-7.8-15.2-12.8-25.7-12.8c-5.8,0-11.2,1.5-15.9,4.2
			c-9.6-12.2-24.8-20-42-20c-16.9,0-32,7.7-41.6,19.6c-4.8-2.8-10.4-4.5-16.4-4.5c-11,0-20.8,5.6-26.6,14.1
			c-3.7-1.5-7.7-2.4-11.9-2.4c-17.1,0-30.9,13.8-30.9,30.9c0,17.1,13.8,30.9,30.9,30.9c10.1,0,19.1-4.9,24.7-12.4
			c4.2,2,8.8,3.1,13.7,3.1c4.4,0,8.7-0.9,12.5-2.5c9.2,15,26.1,25,45.4,25c19.1,0,35.8-9.8,45.1-24.4c3.9,1.7,8.2,2.6,12.8,2.6
			c4.4,0,8.6-0.9,12.4-2.5c5.7,6.8,14.2,11.1,23.7,11.1c17.1,0,30.9-13.8,30.9-30.9C253.8,231.5,239.9,217.7,222.9,217.7z"/>
	</g>
</g>
</svg>
