<svg clip-rule="evenodd" fill-rule="evenodd" height="666.667" image-rendering="optimizeQuality" shape-rendering="geometricPrecision" text-rendering="geometricPrecision" viewBox="0 0 17639 17639" width="666.667" xmlns="http://www.w3.org/2000/svg"><g fill="#2e7237"><path d="m3530 12768v-7897l6105-1105v10107zm6348-7688h4198l1 7549h-4199v-1975l1051 943 1151-1132-1155-1215-1050 919 3-3219h2399v1552h-882l1162 1203 1131-1203h-847v-2152h-2963zm-7797 10513h13476v-13475l-13476-1z"/><path d="m6315 7726c442-16 702 5 713 514-1 495-245 553-711 553zm-600-600v3422l597 44 8-1193c890 8 1381-300 1381-1211-9-1367-1031-1103-1986-1062z"/></g></svg>